<?xml version="1.0" standalone="no"?>
<!DOCTYPE svg PUBLIC "-//W3C//DTD SVG 20010904//EN"
 "http://www.w3.org/TR/2001/REC-SVG-20010904/DTD/svg10.dtd">
<svg version="1.0" xmlns="http://www.w3.org/2000/svg"
 width="870.000000pt" height="870.000000pt" viewBox="0 0 870.000000 870.000000"
 preserveAspectRatio="xMidYMid meet">
<metadata>
Created by potrace 1.11, written by Peter Selinger 2001-2013
</metadata>
<g transform="translate(0.000000,870.000000) scale(0.100000,-0.100000)"
fill="#000000" stroke="none">
<path d="M0 4350 l0 -4350 4350 0 4350 0 0 4350 0 4350 -4350 0 -4350 0 0
-4350z m6687 834 c485 -1660 885 -3033 889 -3051 5 -29 3 -32 -28 -41 -18 -5
-1319 -391 -2891 -857 -1572 -466 -2860 -845 -2863 -843 -5 6 -505 1721 -501
1723 1 2 323 97 715 213 393 116 716 212 718 215 3 2 -90 329 -206 727 -116
397 -210 723 -208 724 2 2 326 100 721 219 396 118 721 218 723 220 3 2 -93
329 -212 726 -118 398 -214 724 -212 725 1 2 326 100 722 219 395 119 720 218
722 220 2 2 -91 329 -207 726 -115 398 -209 724 -207 726 9 7 1425 433 1433
431 5 -1 406 -1361 892 -3022z"/>
</g>
</svg>
